<svg width="325" height="394" viewBox="0 0 325 394" fill="none" xmlns="http://www.w3.org/2000/svg">
<path fill-rule="evenodd" clip-rule="evenodd" d="M31.3811 3.11351C4.80164 11.3082 0 22.9182 0 78.9903V122.544H62.8717H125.744V86.2552V49.9656H137.351H148.958V25.1357V0.306722L94.3084 0.43404C54.4475 0.5276 37.4176 1.25293 31.3811 3.11351ZM177.976 33.5773V67.1555H189.583H201.191V79.8584V92.5603L211.622 83.2005L222.053 73.8397L222.262 50.3804L222.471 26.9201L271.802 27.4602C298.934 27.7583 321.133 27.359 321.132 26.5738C321.129 22.9703 305.744 8.84187 297.916 5.25477C289.845 1.55579 285.165 1.21917 233.594 0.632735L177.976 0V33.5773ZM100.595 61.4253V95.805H63.8398H27.0836V61.4253V27.0464H63.8398H100.595V61.4253ZM44.899 61.9027L45.4617 77.6603H63.8398H82.2169L82.7796 61.9027L83.3414 46.1461H63.8398H44.3372L44.899 61.9027ZM264.063 54.1498C261.935 55.3371 237.043 79.5835 208.747 108.03L157.299 159.752L149.884 153.324C130.317 136.363 105.693 139.648 94.8301 160.67C85.7847 178.174 90.2844 190.357 114.2 213.119C141.239 238.854 151.9 242.615 169.101 232.486C178.186 227.136 297.933 108.552 303.731 99.1635C318.816 74.7368 288.607 40.4573 264.063 54.1498ZM150.893 100.467C150.893 120.24 151.686 136.173 152.701 136.792C154.959 138.169 197.321 97.8103 197.321 94.2811C197.321 92.3742 194.673 91.8418 187.165 92.2392L177.009 92.7774L176.44 79.0116L175.872 65.2448H163.383H150.893V100.467ZM314.677 114.563L307.256 122.088L314.677 123C323.851 124.128 323.43 124.548 322.703 114.991L322.098 107.039L314.677 114.563ZM284.759 146.238C274.5 156.866 274.514 156.924 287.277 156.924H297.916V179.843V202.763H281.474H265.03V188.378C265.03 169.727 262.299 168.265 250.05 180.359C243.297 187.026 241.19 190.552 241.042 195.434C240.859 201.46 240.426 201.841 233.11 202.405C226.093 202.947 223.167 205.171 201.701 226.28L178.03 249.557L178.003 287.279L177.976 325H232.73H287.485L297.54 320.053C323.035 307.509 325 300.323 325 219.612V155.014H311.459H297.916V146.419C297.916 135.406 295.251 135.369 284.759 146.238ZM54.1672 147.283V155.014H27.0836H0V168.383V181.754H14.5085H29.0179V192.258V202.763H14.5085H0L0.0420094 246.214C0.0908561 295.294 0.902689 298.926 14.7615 312.015C28.1719 324.68 30.1013 325 92.7952 325H148.958V292.66C148.958 257.154 150.04 260.243 136.571 257.264C128.821 255.55 115.86 246.418 109.509 238.196C101.048 227.245 100.158 230.406 101.683 265.994L103.066 298.261H65.0746H27.0836V262.927V227.592H62.0549H97.0273L85.7534 215.24C74.6339 203.057 74.3399 202.886 64.3234 202.825L54.1672 202.763V179.843V156.924H66.8527H79.5382L78.9432 148.806L78.3483 140.689L66.2577 140.12L54.1672 139.551V147.283ZM297.916 262.927V298.261H261.161H224.405V262.927V227.592H261.161H297.916V262.927ZM44.9019 263.404L45.4617 280.116L64.3234 280.663L83.1841 281.209V263.951V246.692H63.7636H44.3431L44.9019 263.404ZM242.632 249.258C242.083 250.669 241.892 258.19 242.209 265.971L242.783 280.116H261.161H279.539L280.098 263.404L280.657 246.692H262.143C248.429 246.692 243.37 247.357 242.632 249.258Z" fill="#05445E"/>
<path d="M14.9354 360.72C14.9354 357.08 15.4954 353.86 16.6154 351.06C17.782 348.26 19.3454 345.927 21.3054 344.06C23.312 342.147 25.6454 340.7 28.3054 339.72C31.012 338.74 33.9287 338.25 37.0554 338.25C40.182 338.25 43.0754 338.74 45.7354 339.72C48.442 340.7 50.7987 342.147 52.8054 344.06C54.812 345.927 56.3754 348.26 57.4954 351.06C58.662 353.86 59.2454 357.08 59.2454 360.72C59.2454 365.293 58.4054 369.19 56.7254 372.41C55.0454 375.583 52.7587 378.08 49.8654 379.9C50.5654 380.227 51.382 380.577 52.3154 380.95C53.2954 381.323 54.2987 381.697 55.3254 382.07C56.3987 382.443 57.4954 382.793 58.6154 383.12C59.7354 383.493 60.7854 383.82 61.7654 384.1C61.812 384.38 61.8354 384.613 61.8354 384.8C61.8354 385.033 61.8354 385.243 61.8354 385.43C61.8354 388.09 61.1354 390.027 59.7354 391.24C58.382 392.453 56.5854 393.06 54.3454 393.06C52.1987 393.06 49.982 392.453 47.6954 391.24C45.4087 390.073 43.0754 388.37 40.6954 386.13L37.6154 383.26H37.0554C33.882 383.26 30.942 382.77 28.2354 381.79C25.5287 380.763 23.1954 379.293 21.2354 377.38C19.2754 375.467 17.7354 373.11 16.6154 370.31C15.4954 367.51 14.9354 364.313 14.9354 360.72ZM27.5354 360.72C27.5354 364.967 28.3987 368.14 30.1254 370.24C31.852 372.34 34.162 373.39 37.0554 373.39C39.9954 373.39 42.3287 372.34 44.0554 370.24C45.782 368.14 46.6454 364.967 46.6454 360.72C46.6454 356.52 45.782 353.37 44.0554 351.27C42.3754 349.17 40.0654 348.12 37.1254 348.12C34.232 348.12 31.8987 349.17 30.1254 351.27C28.3987 353.323 27.5354 356.473 27.5354 360.72ZM78.5708 368.28V381.72C78.0575 381.86 77.2408 382 76.1208 382.14C75.0475 382.28 73.9742 382.35 72.9008 382.35C71.8275 382.35 70.8708 382.257 70.0308 382.07C69.2375 381.93 68.5608 381.65 68.0008 381.23C67.4875 380.81 67.0908 380.227 66.8108 379.48C66.5308 378.733 66.3908 377.753 66.3908 376.54V343.57C66.3908 342.59 66.6475 341.843 67.1608 341.33C67.7208 340.77 68.4675 340.327 69.4008 340C70.9875 339.44 72.8308 339.043 74.9308 338.81C77.0308 338.53 79.2708 338.39 81.6508 338.39C88.0908 338.39 92.9442 339.743 96.2108 342.45C99.4775 345.157 101.111 348.82 101.111 353.44C101.111 356.333 100.364 358.807 98.8708 360.86C97.3775 362.913 95.6042 364.5 93.5508 365.62C95.2308 367.907 96.8875 370.053 98.5208 372.06C100.154 374.067 101.437 375.887 102.371 377.52C101.904 379.153 101.041 380.413 99.7808 381.3C98.5675 382.14 97.1908 382.56 95.6508 382.56C94.6242 382.56 93.7375 382.443 92.9908 382.21C92.2442 381.977 91.5908 381.65 91.0308 381.23C90.4708 380.81 89.9575 380.297 89.4908 379.69C89.0242 379.083 88.5808 378.43 88.1608 377.73L82.2808 368.28H78.5708ZM82.9808 358.97C84.7542 358.97 86.1542 358.527 87.1808 357.64C88.2075 356.707 88.7208 355.353 88.7208 353.58C88.7208 351.807 88.1375 350.477 86.9708 349.59C85.8508 348.657 84.0542 348.19 81.5808 348.19C80.8808 348.19 80.3208 348.213 79.9008 348.26C79.4808 348.307 79.0142 348.377 78.5008 348.47V358.97H82.9808ZM124.937 359.25C126.897 359.25 128.39 358.807 129.417 357.92C130.49 356.987 131.027 355.587 131.027 353.72C131.027 351.947 130.467 350.593 129.347 349.66C128.274 348.68 126.687 348.19 124.587 348.19C123.84 348.19 123.21 348.213 122.697 348.26C122.23 348.26 121.74 348.307 121.227 348.4V359.25H124.937ZM121.297 381.72C120.784 381.86 119.967 382 118.847 382.14C117.774 382.28 116.7 382.35 115.627 382.35C114.554 382.35 113.597 382.257 112.757 382.07C111.964 381.93 111.287 381.65 110.727 381.23C110.167 380.81 109.747 380.227 109.467 379.48C109.187 378.733 109.047 377.753 109.047 376.54V343.57C109.047 342.59 109.304 341.843 109.817 341.33C110.377 340.77 111.124 340.327 112.057 340C113.644 339.44 115.44 339.043 117.447 338.81C119.5 338.53 121.554 338.39 123.607 338.39C130.047 338.39 134.97 339.767 138.377 342.52C141.784 345.273 143.487 349.007 143.487 353.72C143.487 356.007 143.114 358.083 142.367 359.95C141.667 361.77 140.594 363.357 139.147 364.71C137.747 366.017 135.95 367.043 133.757 367.79C131.61 368.49 129.114 368.84 126.267 368.84H121.297V381.72ZM159.344 381.93C158.877 382.07 158.13 382.21 157.104 382.35C156.124 382.49 155.097 382.56 154.024 382.56C152.997 382.56 152.064 382.49 151.224 382.35C150.43 382.21 149.754 381.93 149.194 381.51C148.634 381.09 148.19 380.53 147.864 379.83C147.584 379.083 147.444 378.127 147.444 376.96V355.96C147.444 354.887 147.63 353.977 148.004 353.23C148.424 352.437 149.007 351.737 149.754 351.13C150.5 350.523 151.41 349.987 152.484 349.52C153.604 349.007 154.794 348.563 156.054 348.19C157.314 347.817 158.62 347.537 159.974 347.35C161.327 347.117 162.68 347 164.034 347C166.274 347 168.047 347.443 169.354 348.33C170.66 349.17 171.314 350.57 171.314 352.53C171.314 353.183 171.22 353.837 171.034 354.49C170.847 355.097 170.614 355.657 170.334 356.17C169.354 356.17 168.35 356.217 167.324 356.31C166.297 356.403 165.294 356.543 164.314 356.73C163.334 356.917 162.4 357.127 161.514 357.36C160.674 357.547 159.95 357.78 159.344 358.06V381.93ZM210.134 364.99C210.134 367.883 209.691 370.473 208.804 372.76C207.918 375 206.658 376.89 205.024 378.43C203.438 379.97 201.524 381.137 199.284 381.93C197.044 382.723 194.548 383.12 191.794 383.12C189.041 383.12 186.544 382.7 184.304 381.86C182.064 381.02 180.128 379.83 178.494 378.29C176.908 376.703 175.671 374.79 174.784 372.55C173.898 370.31 173.454 367.79 173.454 364.99C173.454 362.237 173.898 359.74 174.784 357.5C175.671 355.26 176.908 353.37 178.494 351.83C180.128 350.243 182.064 349.03 184.304 348.19C186.544 347.35 189.041 346.93 191.794 346.93C194.548 346.93 197.044 347.373 199.284 348.26C201.524 349.1 203.438 350.313 205.024 351.9C206.658 353.44 207.918 355.33 208.804 357.57C209.691 359.81 210.134 362.283 210.134 364.99ZM185.634 364.99C185.634 367.837 186.171 370.03 187.244 371.57C188.364 373.063 189.904 373.81 191.864 373.81C193.824 373.81 195.318 373.04 196.344 371.5C197.418 369.96 197.954 367.79 197.954 364.99C197.954 362.19 197.418 360.043 196.344 358.55C195.271 357.01 193.754 356.24 191.794 356.24C189.834 356.24 188.318 357.01 187.244 358.55C186.171 360.043 185.634 362.19 185.634 364.99ZM232.25 346.93C234.163 346.93 236.03 347.21 237.85 347.77C239.716 348.283 241.326 349.077 242.68 350.15C244.08 349.217 245.643 348.447 247.37 347.84C249.143 347.233 251.266 346.93 253.74 346.93C255.513 346.93 257.24 347.163 258.92 347.63C260.646 348.097 262.163 348.843 263.47 349.87C264.823 350.85 265.896 352.18 266.69 353.86C267.483 355.493 267.88 357.5 267.88 359.88V381.93C267.413 382.07 266.666 382.21 265.64 382.35C264.66 382.49 263.633 382.56 262.56 382.56C261.533 382.56 260.6 382.49 259.76 382.35C258.966 382.21 258.29 381.93 257.73 381.51C257.17 381.09 256.726 380.53 256.4 379.83C256.12 379.083 255.98 378.127 255.98 376.96V360.23C255.98 358.83 255.583 357.827 254.79 357.22C253.996 356.567 252.923 356.24 251.57 356.24C250.916 356.24 250.216 356.403 249.47 356.73C248.723 357.01 248.163 357.313 247.79 357.64C247.836 357.827 247.86 358.013 247.86 358.2C247.86 358.34 247.86 358.48 247.86 358.62V381.93C247.346 382.07 246.576 382.21 245.55 382.35C244.57 382.49 243.566 382.56 242.54 382.56C241.513 382.56 240.58 382.49 239.74 382.35C238.946 382.21 238.27 381.93 237.71 381.51C237.15 381.09 236.706 380.53 236.38 379.83C236.1 379.083 235.96 378.127 235.96 376.96V360.23C235.96 358.83 235.516 357.827 234.63 357.22C233.79 356.567 232.763 356.24 231.55 356.24C230.71 356.24 229.986 356.38 229.38 356.66C228.773 356.893 228.26 357.127 227.84 357.36V381.93C227.373 382.07 226.626 382.21 225.6 382.35C224.62 382.49 223.593 382.56 222.52 382.56C221.493 382.56 220.56 382.49 219.72 382.35C218.926 382.21 218.25 381.93 217.69 381.51C217.13 381.09 216.686 380.53 216.36 379.83C216.08 379.083 215.94 378.127 215.94 376.96V355.82C215.94 354.56 216.196 353.557 216.71 352.81C217.27 352.063 218.016 351.363 218.95 350.71C220.536 349.59 222.496 348.68 224.83 347.98C227.21 347.28 229.683 346.93 232.25 346.93ZM310.349 364.99C310.349 367.883 309.906 370.473 309.019 372.76C308.132 375 306.872 376.89 305.239 378.43C303.652 379.97 301.739 381.137 299.499 381.93C297.259 382.723 294.762 383.12 292.009 383.12C289.256 383.12 286.759 382.7 284.519 381.86C282.279 381.02 280.342 379.83 278.709 378.29C277.122 376.703 275.886 374.79 274.999 372.55C274.112 370.31 273.669 367.79 273.669 364.99C273.669 362.237 274.112 359.74 274.999 357.5C275.886 355.26 277.122 353.37 278.709 351.83C280.342 350.243 282.279 349.03 284.519 348.19C286.759 347.35 289.256 346.93 292.009 346.93C294.762 346.93 297.259 347.373 299.499 348.26C301.739 349.1 303.652 350.313 305.239 351.9C306.872 353.44 308.132 355.33 309.019 357.57C309.906 359.81 310.349 362.283 310.349 364.99ZM285.849 364.99C285.849 367.837 286.386 370.03 287.459 371.57C288.579 373.063 290.119 373.81 292.079 373.81C294.039 373.81 295.532 373.04 296.559 371.5C297.632 369.96 298.169 367.79 298.169 364.99C298.169 362.19 297.632 360.043 296.559 358.55C295.486 357.01 293.969 356.24 292.009 356.24C290.049 356.24 288.532 357.01 287.459 358.55C286.386 360.043 285.849 362.19 285.849 364.99Z" fill="#05445E"/>
</svg>
